# xmcd CD database file
#
# Track frame offsets:
#	150
#	12942
#	38796
#	60133
#	80248
#	104670
#	134722
#	155248
#	172733
#	191308
#	207917
#	226671
#	256631
#	271739
#	294731
#	308892
#
# Disc length: 4376 seconds
#
# Revision: 0
# Processed by: cddbd v1.5.2PL0 Copyright (c) Steve Scherf et al.
# Submitted via: CDex 1.86
#
DISCID=d6111610
DTITLE=LRBC 31 Sampler - Disc 1
DYEAR=2018
DGENRE=Blues
TTITLE0=Taj Mahal - What Am I Living For
TTITLE1=Tommy Castro - My Old Neighborhood
TTITLE2=Southern Avenue - Don't Give Up
TTITLE3=Selwyn Birchwood - Even The Saved Need Saving
TTITLE4=Billy Branch - Song For My Mother
TTITLE5=Roy Gaines - You Don't Understand
TTITLE6=Ruthie Foster - Joy Comes Back
TTITLE7=G Love - Mom's a Surfer
TTITLE8=The California Honeydrops - Those Days
TTITLE9=Debbie Davies - Talk Real Slow
TTITLE10=Scottie Miller - It's What You Do
TTITLE11=Nick Schnebelen - The Fool
TTITLE12=Gracie Curran - Even With The Rain
TTITLE13=Kenny Blues Boss Wayne - I Knew I'd Be Playing The Blues
TTITLE14=Brother Yusef - Bottom Blues
TTITLE15=Leon Blue - Den Haag Boogie Woogie
EXTD=YEAR: 2018
EXTT0=
EXTT1=
EXTT2=
EXTT3=
EXTT4=
EXTT5=
EXTT6=
EXTT7=
EXTT8=
EXTT9=
EXTT10=
EXTT11=
EXTT12=
EXTT13=
EXTT14=
EXTT15=
PLAYORDER=
